# xmcd CD Database Entry
#
# Track frame offsets:
# 150
# 12701
# 25269
# 38378
# 50351
# 62055
# 73873
# 86132
# 98015
# 110409
# 123152
# 135078
# 147579
# 160093
# 173061
# 186710
# 198991
# 210537
# 223493
# 236446
# 248270
# 260056
# 272397
#
# Disc length: 3805 seconds
#
# Revision: 2
# Processed by: cddbd v1.4b41PL1 Copyright (c) Steve Scherf et al.
# Submitted via: tcd 2.0b
#
DISCID=4a0edb17
DTITLE=Brownie McGhee - Born For Bad Luck CD#1
DYEAR=1900
DGENRE=
TTITLE0=Picking My Tomatoes
TTITLE1=Me And My Dog Blues
TTITLE2=Born For Bad Luck
TTITLE3=I'm Callin' Daisy
TTITLE4=Step It Up And Go
TTITLE5=My Barkin' Bulldog Blues
TTITLE6=Let Tell You 'Bout My Baby
TTITLE7=Prison Woman Blues
TTITLE8=Back Door Stranger
TTITLE9=Be Good To Me
TTITLE10=Not Guilty Blues
TTITLE11=Coal Miner Blues
TTITLE12=Step It Up And Go No. 2
TTITLE13=Money Spending Woman
TTITLE14=Death Of Blind Boy Fuller (1)
TTITLE15=Death Of Blind Boy Fuller (2)
TTITLE16=Spur 17Got To Find My Little Woman
TTITLE17=I'm A Black Womans Man (1)
TTITLE18=I'm A Black Womans Man (2)
TTITLE19=Dealing With The Devil
TTITLE20=Double Trouble (1)
TTITLE21=Double Trouble (2)
TTITLE22=Woman, I'm Done
EXTD=
EXTT0=
EXTT1=
EXTT2=
EXTT3=
EXTT4=
EXTT5=
EXTT6=
EXTT7=
EXTT8=
EXTT9=
EXTT10=
EXTT11=
EXTT12=
EXTT13=
EXTT14=
EXTT15=
EXTT16=
EXTT17=
EXTT18=
EXTT19=
EXTT20=
EXTT21=
EXTT22=
PLAYORDER=
